# AST/ASF file generated using VICON BodyLanguage
# -----------------------------------------------
:version 1.10
:name VICON
:units
  mass 1.0
  length 0.45
  angle deg
:documentation
   .ast/.asf automatically generated from VICON data using
   VICON BodyBuilder and BodyLanguage model FoxedUp or BRILLIANT.MOD
:root
   order TX TY TZ RX RY RZ
   axis XYZ
   position 0 0 0  
   orientation 0 0 0 
:bonedata
  begin
     id 1 
     name lhipjoint
     direction 0.522423 -0.726805 0.445902 
     length 2.25074 
     axis 0 0 0  XYZ
  end
  begin
     id 2 
     name lfemur
     direction 0.34202 -0.939693 0  
     length 6.54609  
     axis 0 0 20  XYZ
    dof rx ry rz
    limits (-160.0 20.0)
           (-70.0 70.0)
           (-60.0 70.0)
  end
  begin
     id 3 
     name ltibia
     direction 0.34202 -0.939693 0   
     length 7.7528   
     axis 0 0 20   XYZ
    dof rx
    limits (-10.0 170.0)
  end
  begin
     id 4 
     name lfoot
     direction 0.143696 -0.394801 0.90746   
     length 1.73269   
     axis -90 7.62852e-016 20   XYZ
    dof rx rz
    limits (-45.0 90.0)
           (-70.0 20.0)
  end
  begin
     id 5 
     name ltoes
     direction 1.53633e-011 -4.21912e-011 1   
     length 0.858383   
     axis -90 7.62852e-016 20   XYZ
    dof rx
    limits (-90.0 20.0)
  end
  begin
     id 6 
     name rhipjoint
     direction -0.515943 -0.73016 0.447961   
     length 2.2404  
     axis 0 0 0  XYZ 
  end
  begin
     id 7 
     name rfemur
     direction -0.34202 -0.939693 0   
     length 6.84377   
     axis 0 0 -20   XYZ
    dof rx ry rz
    limits (-160.0 20.0)
           (-70.0 70.0)
           (-70.0 60.0)
  end
  begin
     id 8 
     name rtibia
     direction -0.34202 -0.939693 0   
     length 7.57596   
     axis 0 0 -20   XYZ
    dof rx
    limits (-10.0 170.0)
 end
 begin
     id 9 
     name rfoot
     direction -0.0999372 -0.274575 0.956358   
     length 1.78783  
     axis -90 -7.62852e-016 -20   XYZ
    dof rx rz
    limits (-45.0 90.0)
           (-20.0 70.0)
  end
  begin
     id 10 
     name rtoes
     direction -1.53535e-011 -4.21895e-011 1   
     length 0.898614   
     axis -90 -7.62852e-016 -20   XYZ
    dof rx
    limits (-90.0 20.0)
  end
  begin
     id 11 
     name lowerback
     direction -0.011775 0.996164 -0.0867116   
     length 1.91499   
     axis 0 0 0   XYZ
    dof rx ry rz
    limits (-20.0 45.0)
           (-30.0 30.0)
           (-30.0 30.0)
  end
  begin
     id 12 
     name upperback
     direction -0.00189771 0.999673 -0.0254833   
     length 1.92213   
     axis 0 0 0   XYZ
    dof rx ry rz
    limits (-20.0 45.0)
           (-30.0 30.0)
           (-30.0 30.0)
  end
  begin
     id 13 
     name thorax
     direction 0.00335995 0.999878 0.0152401   
     length 1.93138   
     axis 0 0 0   XYZ
    dof rx ry rz
    limits (-20.0 45.0)
           (-30.0 30.0)
           (-30.0 30.0)
  end
  begin
     id 14 
     name lowerneck
     direction 0.00233191 0.998509 0.0545404   
     length 1.59408   
     axis 0 0 0   XYZ
    dof rx ry rz
    limits (-20.0 45.0)
           (-30.0 30.0)
           (-30.0 30.0)
  end
  begin
     id 15 
     name upperneck
     direction 0.07881 0.9956 -0.0506934   
     length 1.59344   
     axis 0 0 0   XYZ
    dof rx ry rz
    limits (-20.0 45.0)
           (-30.0 30.0)
           (-30.0 30.0)
  end
  begin
     id 16
     name head
     direction 0.0261681 0.999378 -0.0236299  
     length 1.60935  
     axis 0 0 0   XYZ
    dof rx ry rz
    limits (-20.0 45.0)
           (-30.0 30.0)
           (-30.0 30.0)
  end
  begin
     id 17 
     name lclavicle
     direction 0.96643 0.252035 0.0499195  
     length 3.82153  
     axis 0 0 0   XYZ
    dof ry rz
    limits (-20.0 10.0)
           (0.0 20.0)
  end
  begin
     id 18 
     name lhumerus
     direction 1 -4.48967e-011 -2.01614e-018   
     length 4.87796   
     axis 180 -30 -90   XYZ
    dof rx ry rz
    limits (-60.0 90.0)
           (-90.0 90.0)
           (-90.0 90.0)
  end
  begin
     id 19
     name lradius
     direction 1 -4.48958e-011 3.1409e-027   
     length 3.23169   
     axis 180 -30 -90   XYZ
    dof rx
    limits (-10.0 170.0)
  end
  begin
     id 20
     name lwrist
     direction 1 -4.48924e-011 1.0365e-027   
     length 1.61584   
     axis -2.56395e-016 90 90   XYZ
    dof ry
    limits (-180.0 0.0)
 end
  begin
     id 21 
     name lhand
     direction 1 -4.49055e-011 2.09488e-027   
     length 0.731324   
     axis -1.32723e-015 90 90   XYZ
    dof rx rz
    limits (-90.0 90.0)
           (-45.0 45.0)
  end
  begin
     id 22 
     name lfingers
     direction 1 -4.48935e-011 4.14981e-027   
     length 0.589612   
     axis -2.6545e-015 90 90   XYZ
    dof rx
    limits (0.0 90.0)
  end
  begin
     id 23
     name lthumb
     direction 0.707107 -6.35097e-011 0.707107   
     length 0.846569   
     axis -90 45 5.05613e-014   XYZ
    dof rx rz
    limits (-45.0 45.0)
           (-45.0 45.0)
  end
  begin
     id 24 
     name rclavicle
     direction -0.979337 0.201016 0.0221522   
     length 3.73827  
     axis 0 0 0   XYZ 
    dof ry rz
    limits (-10.0 20.0)
           (-20.0 0.0)
  end
  begin
     id 25 
     name rhumerus
     direction -1 -4.48971e-011 1.65907e-027  
     length 4.9143   
     axis 180 30 90   XYZ
    dof rx ry rz
    limits (-90.0 60.0)
           (-90.0 90.0)
           (-90.0 90.0)
  end
  begin
     id 26 
     name rradius
     direction -1 -4.4894e-011 2.17871e-028   
     length 3.29093   
     axis 180 30 90   XYZ
    dof rx
    limits (-10.0 170.0)
  end
  begin
     id 27 
     name rwrist
     direction -1 -4.48971e-011 1.04038e-027   
     length 1.64546   
     axis -2.56395e-016 -90 -90   XYZ
    dof ry
    limits (-180.0 0.0)
  end
  begin
     id 28
     name rhand
     direction -1 -4.49017e-011 2.08843e-027   
     length 0.54512   
     axis -1.32723e-015 -90 -90   XYZ
    dof rx rz
    limits (-90.0 90.0)
           (-45.0 45.0)
  end
  begin
     id 29
     name rfingers
     direction -1 -4.48918e-011 4.1439e-027   
     length 0.43949   
     axis -2.6545e-015 -90 -90   XYZ
    dof rx
    limits (0.0 90.0)
  end
  begin
     id 30
     name rthumb
     direction -0.707107 -6.35065e-011 0.707107   
     length 0.631022   
     axis -90 -45 -5.05613e-014   XYZ
    dof rx rz
    limits (-45.0 45.0)
           (-45.0 45.0)
  end
:hierarchy
  begin
    root lhipjoint rhipjoint lowerback
    lhipjoint lfemur
    lfemur ltibia
    ltibia lfoot
    lfoot ltoes
    rhipjoint rfemur
    rfemur rtibia
    rtibia rfoot
    rfoot rtoes
    lowerback upperback
    upperback thorax
    thorax lowerneck lclavicle rclavicle
    lowerneck upperneck
    upperneck head
    lclavicle lhumerus
    lhumerus lradius
    lradius lwrist
    lwrist lhand lthumb
    lhand lfingers
    rclavicle rhumerus
    rhumerus rradius
    rradius rwrist
    rwrist rhand rthumb
    rhand rfingers
  end

#!OML:ASF H:\BreakDance\Project 1\Capture day 1\Session 1\Male.ASF
:FULLY-SPECIFIED
:DEGREES
64
root 1.52179 14.2811 -1.23478 9.90919 -88.3508 -12.3937
lowerback 9.41651 0.655576 -2.18108
upperback 3.99426 0.541511 -0.505004
thorax -1.15276 0.198015 0.65036
lowerneck -7.84266 -2.21342 -2.85248
upperneck 4.44808 -3.36222 9.38751
head 3.11592 -1.42465 3.48649
rclavicle 2.18663e-015 1.07344e-014
rhumerus 18.6925 4.51391 -77.3154
rradius 89.7471
rwrist 6.80234
rhand -0.973897 -52.6663
rfingers 7.12502
rthumb 24.6572 -81.0978
lclavicle 2.18663e-015 1.07344e-014
lhumerus 25.8323 -7.96282 78.9484
lradius 82.3162
lwrist -28.3667
lhand 14.7346 -15.4237
lfingers 7.12502
lthumb 39.6017 9.92125
rfemur -36.2716 -20.6415 4.58514
rtibia 69.6583
rfoot -27.0081 0.57288
rtoes -18.5495
lfemur -39.4551 20.7311 -6.92256
ltibia 72.1541
lfoot -30.4017 -3.93794
ltoes -17.569
65
root 1.52296 14.2857 -1.23377 9.01343 -88.3252 -11.4872
lowerback 9.38633 0.638811 -2.20046
upperback 3.99538 0.518775 -0.504392
thorax -1.13456 0.186429 0.664422
lowerneck -7.82691 -2.22361 -2.99692
upperneck 4.45236 -3.36704 9.47304
head 3.12175 -1.4272 3.54477
rclavicle -5.96354e-015 8.74653e-015
rhumerus 18.7345 4.56572 -77.2657
rradius 89.6539
rwrist 6.70631
rhand -1.14142 -52.6382
rfingers 7.12502
rthumb 24.4967 -81.0915
lclavicle -5.96354e-015 8.74653e-015
lhumerus 25.8712 -7.94497 78.8855
lradius 82.2187
lwrist -28.2787
lhand 14.6745 -15.4665
lfingers 7.12502
lthumb 39.5452 9.89512
rfemur -36.2919 -20.6404 4.56079
rtibia 69.6287
rfoot -26.9699 0.564884
rtoes -18.5776
lfemur -39.4504 20.6957 -6.96185
ltibia 72.1364
lfoot -30.3213 -3.96856
ltoes -17.2136
66
root 1.52343 14.2853 -1.23172 9.90432 -88.3131 -12.3865
lowerback 9.38658 0.642418 -2.11656
upperback 3.98599 0.53074 -0.520071
thorax -1.14397 0.193624 0.599865
lowerneck -7.78689 -2.22955 -3.02041
upperneck 4.45601 -3.37438 9.49132
head 3.11714 -1.43159 3.55544
rclavicle -7.95139e-016 -5.96354e-015
rhumerus 18.7157 4.53008 -77.245
rradius 89.5889
rwrist 6.60895
rhand -1.23347 -52.5457
rfingers 7.12502
rthumb 24.4084 -81.0109
lclavicle -7.95139e-016 -5.96354e-015
lhumerus 25.8324 -8.0073 78.8302
lradius 82.1563
lwrist -28.2195
lhand 14.5421 -15.5608
lfingers 7.12502
lthumb 39.4205 9.83746
rfemur -36.2916 -20.6524 4.59024
rtibia 69.6156
rfoot -26.9461 0.481771
rtoes -18.9997
lfemur -39.4268 20.6783 -6.93135
ltibia 72.1342
lfoot -30.2994 -4.0794
ltoes -16.5987
67
root 1.52407 14.284 -1.22949 12.5454 -88.2824 -15.069
lowerback 9.43943 0.631385 -2.00547
upperback 3.97842 0.524586 -0.503473
thorax -1.17995 0.191858 0.554825
lowerneck -7.74473 -2.20182 -3.02013
upperneck 4.46592 -3.33807 9.49135
head 3.10978 -1.41438 3.55749
rclavicle 2.18663e-015 -2.78299e-015
rhumerus 18.6697 4.54164 -77.2295
rradius 89.5571
rwrist 6.4488
rhand -1.40644 -52.5655
rfingers 7.12502
rthumb 24.2426 -81.053
lclavicle 2.18663e-015 -2.78299e-015
lhumerus 25.7194 -8.04459 78.7899
lradius 82.1653
lwrist -28.1379
lhand 14.5068 -15.5934
lfingers 7.12502
lthumb 39.3872 9.81461
rfemur -36.2447 -20.6737 4.66418
rtibia 69.592
rfoot -26.9428 0.393523
rtoes -19.4353
lfemur -39.3567 20.6573 -6.82458
ltibia 72.1422
lfoot -30.2968 -4.20517
ltoes -16.0558
68
root 1.52606 14.2842 -1.22676 12.2152 -88.2523 -14.7453
lowerback 9.46484 0.597576 -1.96344
upperback 3.98103 0.481964 -0.525702
thorax -1.18968 0.17104 0.512512
lowerneck -7.76825 -2.14162 -2.99367
upperneck 4.71659 -3.29399 9.80952
head 2.89029 -1.35719 3.29683
rclavicle -4.47266e-015 -3.97569e-016
rhumerus 18.6767 4.58987 -77.2497
rradius 89.5503
rwrist 6.3274
rhand -1.472 -52.5957
rfingers 7.12502
rthumb 24.1797 -81.0915
lclavicle -4.47266e-015 -3.97569e-016
lhumerus 25.7025 -8.04116 78.6818
lradius 82.1579
lwrist -28.0333
lhand 14.5866 -15.516
lfingers 7.12502
lthumb 39.4623 9.86998
rfemur -36.2162 -20.7363 4.63862
rtibia 69.5689
rfoot -26.9528 0.441608
rtoes -19.2455
lfemur -39.3776 20.618 -6.86284
ltibia 72.1547
lfoot -30.3936 -4.05881
ltoes -16.6118
69
root 1.52843 14.2858 -1.22369 15.4225 -88.2108 -17.9538
lowerback 9.48492 0.569009 -1.78199
upperback 3.98572 0.4593 -0.528038
thorax -1.19408 0.161354 0.410411
lowerneck -7.8348 -2.11723 -3.04652
upperneck 4.788 -3.26845 9.89825
head 2.92346 -1.33905 3.33353
rclavicle 3.18055e-015 -3.57812e-015
rhumerus 18.6911 4.61134 -77.2995
rradius 89.5594
rwrist 6.34136
rhand -1.42921 -52.6223
rfingers 7.12502
rthumb 24.2207 -81.1127
lclavicle 3.18055e-015 -3.57812e-015
lhumerus 25.7667 -8.0404 78.5874
lradius 82.0844
lwrist -27.9868
lhand 14.5867 -15.5118
lfingers 7.12502
lthumb 39.4625 9.87412
rfemur -36.1876 -20.7389 4.74766
rtibia 69.5484
rfoot -26.9606 0.492828
rtoes -19.1112
lfemur -39.4573 20.6023 -6.78253
ltibia 72.1727
lfoot -30.5555 -3.90618
ltoes -17.6537
70
root 1.53003 14.2855 -1.22205 19.2549 -88.1547 -21.8179
lowerback 9.53628 0.550797 -1.6335
upperback 3.98506 0.44796 -0.480298
thorax -1.22209 0.156909 0.377119
lowerneck -7.87033 -2.10271 -3.15991
upperneck 4.85122 -3.24612 9.96294
head 2.94963 -1.325 3.37298
rclavicle 5.11871e-015 -1.98785e-015
rhumerus 18.7081 4.62959 -77.3044
rradius 89.5143
rwrist 6.36349
rhand -1.40357 -52.6302
rfingers 7.12502
rthumb 24.2453 -81.1173
lclavicle 5.11871e-015 -1.98785e-015
lhumerus 25.7878 -8.01945 78.5941
lradius 82.0336
lwrist -28.0569
lhand 14.5307 -15.5473
lfingers 7.12502
lthumb 39.4098 9.85413
rfemur -36.1192 -20.7165 4.88043
rtibia 69.5498
rfoot -26.9724 0.495582
rtoes -19.2475
lfemur -39.4542 20.5897 -6.62482
ltibia 72.1886
lfoot -30.5924 -3.89957
ltoes -17.9249
71
root 1.53219 14.2824 -1.22125 17.4355 -88.145 -20.0382
lowerback 9.59525 0.542853 -1.69688
upperback 3.99515 0.429875 -0.471468
thorax -1.24412 0.14695 0.423412
lowerneck -7.87656 -2.05658 -3.22525
upperneck 4.84757 -3.17585 9.96484
head 2.94574 -1.29091 3.38805
rclavicle -3.52843e-015 -2.38542e-015
rhumerus 18.7694 4.64371 -77.2565
rradius 89.45
rwrist 6.30699
rhand -1.42779 -52.5717
rfingers 7.12502
rthumb 24.2221 -81.0619
lclavicle -3.52843e-015 -2.38542e-015
lhumerus 25.7916 -7.99868 78.6216
lradius 82.0259
lwrist -28.065
lhand 14.5132 -15.5256
lfingers 7.12502
lthumb 39.3932 9.88059
rfemur -36.0659 -20.7466 4.79332
rtibia 69.5695
rfoot -26.9676 0.509434
rtoes -19.2797
lfemur -39.4064 20.5529 -6.66999
ltibia 72.1887
lfoot -30.5558 -3.91218
ltoes -17.797
72
root 1.53475 14.282 -1.21995 14.7865 -88.1498 -17.4336
lowerback 9.62519 0.543998 -1.74064
upperback 4.03721 0.424346 -0.509284
thorax -1.21688 0.142682 0.409496
lowerneck -7.94374 -2.00941 -3.18192
upperneck 4.84799 -3.11195 9.91051
head 2.95099 -1.25842 3.36725
rclavicle 3.97569e-016 7.95139e-016
rhumerus 18.8195 4.61016 -77.2577
rradius 89.4311
rwrist 6.2414
rhand -1.57904 -52.4633
rfingers 7.12502
rthumb 24.0771 -80.9728
lclavicle 3.97569e-016 7.95139e-016
lhumerus 25.8527 -8.02364 78.5773
lradius 82.0009
lwrist -27.9746
lhand 14.4643 -15.4748
lfingers 7.12502
lthumb 39.3472 9.94483
rfemur -36.0524 -20.76 4.66904
rtibia 69.5747
rfoot -26.9266 0.592987
rtoes -19.0332
lfemur -39.3854 20.5139 -6.76553
ltibia 72.177
lfoot -30.5867 -3.90457
ltoes -18.3246
73
root 1.53504 14.2836 -1.2162 10.1263 -88.1907 -12.8028
lowerback 9.60916 0.546094 -1.80267
upperback 4.06389 0.419177 -0.59177
thorax -1.18017 0.139052 0.359915
lowerneck -8.02732 -1.99147 -3.09481
upperneck 4.92839 -3.09467 9.80787
head 2.98453 -1.24744 3.32194
rclavicle -2.43511e-015 1.23246e-014
rhumerus 18.7942 4.56685 -77.3219
rradius 89.437
rwrist 6.24235
rhand -1.62799 -52.3461
rfingers 7.12502
rthumb 24.0302 -80.8618
lclavicle -2.43511e-015 1.23246e-014
lhumerus 25.8677 -8.05151 78.4832
lradius 81.9789
lwrist -27.9308
lhand 14.4153 -15.464
lfingers 7.12502
lthumb 39.301 9.96915
rfemur -36.0457 -20.7852 4.45461
rtibia 69.583
rfoot -26.9117 0.744363
rtoes -18.7253
lfemur -39.3514 20.4708 -6.95532
ltibia 72.1697
lfoot -30.6299 -3.81227
ltoes -18.8197
